<?xml version="1.0"?>
<svg xmlns="http://www.w3.org/2000/svg" xmlns:xlink="http://www.w3.org/1999/xlink" version="1.1" id="Capa_1" x="0px" y="0px" viewBox="0 0 511.999 511.999" style="enable-background:new 0 0 511.999 511.999;" xml:space="preserve" width="512px" height="512px"><g><g>
	<g>
		<path d="M497.704,71.416l-34.301-1.608l34.704-34.704c5.857-5.857,5.857-15.354,0-21.211c-5.856-5.857-15.354-5.857-21.211,0    l-34.704,34.704l-1.608-34.301c-0.388-8.274-7.434-14.67-15.684-14.28c-8.274,0.388-14.668,7.41-14.28,15.685l2.885,61.535    c0.001,0.015,0.003,0.03,0.004,0.045l-20.037,20.037l-11.88-11.88c-11.953-11.954-28.477-18.319-45.376-17.473    c-16.884,0.849-32.701,8.844-43.395,21.937L10.626,435.378c-15.296,18.726-13.937,45.739,3.16,62.835    c9.145,9.144,21.124,13.786,33.156,13.786c10.465,0,20.969-3.512,29.679-10.626l345.477-282.194    c13.093-10.694,21.089-26.51,21.937-43.394c0.85-16.883-5.52-33.423-17.474-45.376l-11.879-11.88l20.037-20.038    c0.015,0.001,0.029,0.004,0.044,0.004l61.535,2.885c0.239,0.011,0.477,0.017,0.714,0.017c7.96,0,14.594-6.261,14.971-14.297    C512.37,78.826,505.978,71.804,497.704,71.416z M414.077,174.278c-0.431,8.555-4.321,16.249-10.955,21.669l-9.709,7.931    l-20.973-20.973c-5.856-5.857-15.354-5.857-21.211,0c-5.857,5.857-5.857,15.354,0,21.211l18.834,18.834l-49.912,40.769    l-19.625-19.625c-5.856-5.857-15.354-5.857-21.211,0c-5.857,5.857-5.857,15.354,0,21.211l17.487,17.487l-81.514,66.584    l-4.746-4.746c-5.856-5.857-15.354-5.857-21.211,0c-5.857,5.857-5.857,15.354,0,21.211l2.607,2.607L57.645,478.141    c-6.749,5.512-16.485,5.023-22.647-1.139c-6.161-6.162-6.651-15.898-1.139-22.648l56.305-68.931l6.296,6.296    c2.929,2.929,6.767,4.394,10.605,4.394s7.677-1.464,10.605-4.394c5.857-5.857,5.857-15.354,0-21.211l-8.435-8.435l63.487-77.725    l2.958,2.958c2.929,2.929,6.767,4.394,10.605,4.394s7.677-1.464,10.605-4.394c5.857-5.857,5.857-15.354,0-21.211l-5.096-5.096    l70.266-86.024l19.989,19.989c2.929,2.929,6.767,4.394,10.605,4.394c3.838,0,7.677-1.464,10.605-4.394    c5.857-5.857,5.857-15.354,0-21.211l-22.128-22.128l34.919-42.75c5.419-6.633,13.114-10.524,21.669-10.955    c8.559-0.425,16.602,2.669,22.659,8.725l44.971,44.972C411.408,157.677,414.506,165.724,414.077,174.278z" data-original="#000000" class="active-path" data-old_color="#ff6600" fill="#ff6600"/>
	</g>
</g></g> </svg>
